# xmcd
#
# Track frame offsets:
#	150
#	9951
#	21500
#	30535
#	40013
#	52675
#	63650
#	72233
#	80892
#	91079
#	102297
#	112153
#	120704
#	130801
#	139746
#	153332
#	164395
#	177496
#	186120
#	196119
#	205229
#	216174
#	227008
#	237460
#	248680
#	259976
#	271388
#	282525
#	292320
#	301939
#	311251
#	324567
#
# Disc length: 4481 seconds
#
# Revision: 0
# Processed by: cddbd v1.5.2PL0 Copyright (c) Steve Scherf et al.
# Submitted via: EasyCDDAExtractor 12.0.1.1
#
DISCID=d5117f20
DTITLE=Buck Owens - Act Naturally: The Buck Owens Recordings 1953-1964 [cd5]
DYEAR=2008
DGENRE=Country
TTITLE0=I Don't Care (Just As Long As You Love Me)
TTITLE1=Don't Let Her Know
TTITLE2=Dang Me
TTITLE3=This Ol' Heart
TTITLE4=Understand Your Man
TTITLE5=You're Welcome Anytime
TTITLE6=Buck's Polka
TTITLE7=Playboy
TTITLE8=We're Gonna Let The Good Times Roll
TTITLE9=Cryin' Time
TTITLE10=I've Got A Tiger By The Tail
TTITLE11=Trouble And Me
TTITLE12=If You Fall Out Of Love With Me
TTITLE13=Fallin' For You
TTITLE14=The Band Keeps Playin' On
TTITLE15=Memphis
TTITLE16=Streets Of Laredo
TTITLE17=Gonna Have Love
TTITLE18=Let The Sad Times Roll On
TTITLE19=Wham Bam
TTITLE20=Above And Beyond
TTITLE21=I Don't Believe I'll Fall In Love Today
TTITLE22=Lyin' Again
TTITLE23=Heartaches For A Dime
TTITLE24=Heartaches By The Number
TTITLE25=The One You Slip Around With
TTITLE26=The Key's In The Mailbox
TTITLE27=I'll Catch You When You Fall
TTITLE28=Bring It To Jesus
TTITLE29=All The Way With Jesus
TTITLE30=Save The Last Dance For Me
TTITLE31=Release Me
EXTD=
EXTT0=
EXTT1=
EXTT2=
EXTT3=
EXTT4=
EXTT5=
EXTT6=
EXTT7=
EXTT8=
EXTT9=
EXTT10=
EXTT11=
EXTT12=
EXTT13=
EXTT14=
EXTT15=
EXTT16=
EXTT17=
EXTT18=
EXTT19=
EXTT20=
EXTT21=
EXTT22=
EXTT23=
EXTT24=
EXTT25=
EXTT26=
EXTT27=
EXTT28=
EXTT29=
EXTT30=
EXTT31=
PLAYORDER=
